REM DIRINDEX 1\2,1\3,1\4,1\5
REM DIRNAME cjc156,folder01,folder02,folder03,folder04
TITLE ""
FILE "CD1Track04.mp3" MP3
  TRACK 01 AUDIO
    TITLE "5:cjc156_0223"
    INDEX 01 00:00:00
  TRACK 02 AUDIO
    TITLE "0:"
    INDEX 01 00:01:26
  TRACK 03 AUDIO
    TITLE "2:cjc156_0224"
    INDEX 01 00:02:40
  TRACK 04 AUDIO
    TITLE "3:cjc156_0225"
    INDEX 01 00:04:66
  TRACK 05 AUDIO
    TITLE "2:cjc156_0226"
    INDEX 01 00:07:29
  TRACK 06 AUDIO
    TITLE "3:cjc156_0227"
    INDEX 01 00:09:18
  TRACK 07 AUDIO
    TITLE "2:cjc156_0228"
    INDEX 01 00:11:15
  TRACK 08 AUDIO
    TITLE "3:cjc156_0229"
    INDEX 01 00:13:22
  TRACK 09 AUDIO
    TITLE "2:cjc156_0230"
    INDEX 01 00:15:32
  TRACK 10 AUDIO
    TITLE "3:cjc156_0231"
    INDEX 01 00:17:47
  TRACK 11 AUDIO
    TITLE "2:cjc156_0232"
    INDEX 01 00:19:65
  TRACK 12 AUDIO
    TITLE "3:cjc156_0233"
    INDEX 01 00:21:33
  TRACK 13 AUDIO
    TITLE "2:cjc156_0234"
    INDEX 01 00:23:08
  TRACK 14 AUDIO
    TITLE "3:cjc156_0235"
    INDEX 01 00:24:67
  TRACK 15 AUDIO
    TITLE "2:cjc156_0236"
    INDEX 01 00:26:60
  TRACK 16 AUDIO
    TITLE "3:cjc156_0237"
    INDEX 01 00:29:19
  TRACK 17 AUDIO
    TITLE "2:cjc156_0238"
    INDEX 01 00:31:61
  TRACK 18 AUDIO
    TITLE "3:cjc156_0239"
    INDEX 01 00:33:52
  TRACK 19 AUDIO
    TITLE "2:cjc156_0240"
    INDEX 01 00:35:51
  TRACK 20 AUDIO
    TITLE "3:cjc156_0241"
    INDEX 01 00:38:49
  TRACK 21 AUDIO
    TITLE "2:cjc156_0242"
    INDEX 01 00:41:63
  TRACK 22 AUDIO
    TITLE "3:cjc156_0243"
    INDEX 01 00:44:05
  TRACK 23 AUDIO
    TITLE "2:cjc156_0244"
    INDEX 01 00:46:31
  TRACK 24 AUDIO
    TITLE "3:cjc156_0245"
    INDEX 01 00:47:64
  TRACK 25 AUDIO
    TITLE "2:cjc156_0246"
    INDEX 01 00:49:31
  TRACK 26 AUDIO
    TITLE "3:cjc156_0247"
    INDEX 01 00:50:60
  TRACK 27 AUDIO
    TITLE "2:cjc156_0248"
    INDEX 01 00:52:26
  TRACK 28 AUDIO
    TITLE "3:cjc156_0249"
    INDEX 01 00:54:30
  TRACK 29 AUDIO
    TITLE "2:cjc156_0250"
    INDEX 01 00:56:45
  TRACK 30 AUDIO
    TITLE "3:cjc156_0251"
    INDEX 01 00:58:62
  TRACK 31 AUDIO
    TITLE "2:cjc156_0252"
    INDEX 01 01:00:74
  TRACK 32 AUDIO
    TITLE "3:cjc156_0253"
    INDEX 01 01:02:08
  TRACK 33 AUDIO
    TITLE "2:cjc156_0254"
    INDEX 01 01:03:14
  TRACK 34 AUDIO
    TITLE "3:cjc156_0255"
    INDEX 01 01:04:60
  TRACK 35 AUDIO
    TITLE "2:cjc156_0256"
    INDEX 01 01:06:38
  TRACK 36 AUDIO
    TITLE "3:cjc156_0257"
    INDEX 01 01:09:12
  TRACK 37 AUDIO
    TITLE "2:cjc156_0258"
    INDEX 01 01:11:68
  TRACK 38 AUDIO
    TITLE "3:cjc156_0259"
    INDEX 01 01:13:61
  TRACK 39 AUDIO
    TITLE "2:cjc156_0260"
    INDEX 01 01:15:62
  TRACK 40 AUDIO
    TITLE "3:cjc156_0261"
    INDEX 01 01:17:08
  TRACK 41 AUDIO
    TITLE "2:cjc156_0262"
    INDEX 01 01:18:39
  TRACK 42 AUDIO
    TITLE "3:cjc156_0263"
    INDEX 01 01:20:02
  TRACK 43 AUDIO
    TITLE "2:cjc156_0264"
    INDEX 01 01:21:51
  TRACK 44 AUDIO
    TITLE "3:cjc156_0265"
    INDEX 01 01:24:20
  TRACK 45 AUDIO
    TITLE "2:cjc156_0266"
    INDEX 01 01:26:74
  TRACK 46 AUDIO
    TITLE "3:cjc156_0267"
    INDEX 01 01:28:35
  TRACK 47 AUDIO
    TITLE "2:cjc156_0268"
    INDEX 01 01:30:09
  TRACK 48 AUDIO
    TITLE "3:cjc156_0269"
    INDEX 01 01:32:04
  TRACK 49 AUDIO
    TITLE "2:cjc156_0270"
    INDEX 01 01:34:06
  TRACK 50 AUDIO
    TITLE "3:cjc156_0271"
    INDEX 01 01:36:09
  TRACK 51 AUDIO
    TITLE "2:cjc156_0272"
    INDEX 01 01:38:22
  TRACK 52 AUDIO
    TITLE "3:cjc156_0273"
    INDEX 01 01:39:45
  TRACK 53 AUDIO
    TITLE "2:cjc156_0274"
    INDEX 01 01:41:03
  TRACK 54 AUDIO
    TITLE "3:cjc156_0275"
    INDEX 01 01:42:30
  TRACK 55 AUDIO
    TITLE "2:cjc156_0276"
    INDEX 01 01:43:62
  TRACK 56 AUDIO
    TITLE "3:cjc156_0277"
    INDEX 01 01:45:02
  TRACK 57 AUDIO
    TITLE "2:cjc156_0278"
    INDEX 01 01:46:31
  TRACK 58 AUDIO
    TITLE "3:cjc156_0279"
    INDEX 01 01:48:18
  TRACK 59 AUDIO
    TITLE "2:cjc156_0280"
    INDEX 01 01:50:15
  TRACK 60 AUDIO
    TITLE "3:cjc156_0281"
    INDEX 01 01:53:02
  TRACK 61 AUDIO
    TITLE "2:cjc156_0282"
    INDEX 01 01:55:71
  TRACK 62 AUDIO
    TITLE "3:cjc156_0283"
    INDEX 01 01:57:13
  TRACK 63 AUDIO
    TITLE "2:cjc156_0284"
    INDEX 01 01:58:40
  TRACK 64 AUDIO
    TITLE "3:cjc156_0285"
    INDEX 01 02:00:14
  TRACK 65 AUDIO
    TITLE "2:cjc156_0286"
    INDEX 01 02:02:11
  TRACK 66 AUDIO
    TITLE "3:cjc156_0287"
    INDEX 01 02:03:67
  TRACK 67 AUDIO
    TITLE "2:cjc156_0288"
    INDEX 01 02:05:58
  TRACK 68 AUDIO
    TITLE "3:cjc156_0289"
    INDEX 01 02:07:16
  TRACK 69 AUDIO
    TITLE "2:cjc156_0290"
    INDEX 01 02:08:54
  TRACK 70 AUDIO
    TITLE "3:cjc156_0291"
    INDEX 01 02:10:30
  TRACK 71 AUDIO
    TITLE "2:cjc156_0292"
    INDEX 01 02:12:17
  TRACK 72 AUDIO
    TITLE "3:cjc156_0293"
    INDEX 01 02:13:44
  TRACK 73 AUDIO
    TITLE "2:cjc156_0294"
    INDEX 01 02:15:07
  TRACK 74 AUDIO
    TITLE "3:cjc156_0295"
    INDEX 01 02:16:38
  TRACK 75 AUDIO
    TITLE "2:cjc156_0296"
    INDEX 01 02:18:08
  TRACK 76 AUDIO
    TITLE "3:cjc156_0297"
    INDEX 01 02:19:27
  TRACK 77 AUDIO
    TITLE "2:cjc156_0298"
    INDEX 01 02:20:54
  TRACK 78 AUDIO
    TITLE "3:cjc156_0299"
    INDEX 01 02:22:09
  TRACK 79 AUDIO
    TITLE "2:cjc156_0300"
    INDEX 01 02:23:50
  TRACK 80 AUDIO
    TITLE "3:cjc156_0301"
    INDEX 01 02:25:08
  TRACK 81 AUDIO
    TITLE "2:cjc156_0302"
    INDEX 01 02:26:46
  TRACK 82 AUDIO
    TITLE "3:cjc156_0303"
    INDEX 01 02:28:14
  TRACK 83 AUDIO
    TITLE "2:cjc156_0304"
    INDEX 01 02:29:66
  TRACK 84 AUDIO
    TITLE "3:cjc156_0305"
    INDEX 01 02:31:40
  TRACK 85 AUDIO
    TITLE "2:cjc156_0306"
    INDEX 01 02:33:23
  TRACK 86 AUDIO
    TITLE "3:cjc156_0307"
    INDEX 01 02:34:67
  TRACK 87 AUDIO
    TITLE "2:cjc156_0308"
    INDEX 01 02:36:47
  TRACK 88 AUDIO
    TITLE "3:cjc156_0309"
    INDEX 01 02:38:44
  TRACK 89 AUDIO
    TITLE "2:cjc156_0310"
    INDEX 01 02:40:56
  TRACK 90 AUDIO
    TITLE "3:cjc156_0311"
    INDEX 01 02:42:63
  TRACK 91 AUDIO
    TITLE "2:cjc156_0312"
    INDEX 01 02:45:09
  TRACK 92 AUDIO
    TITLE "3:cjc156_0313"
    INDEX 01 02:47:23
  TRACK 93 AUDIO
    TITLE "2:cjc156_0314"
    INDEX 01 02:49:55
  TRACK 94 AUDIO
    TITLE "3:cjc156_0315"
    INDEX 01 02:52:11
  TRACK 95 AUDIO
    TITLE "2:cjc156_0316"
    INDEX 01 02:54:51
  TRACK 96 AUDIO
    TITLE "3:cjc156_0317"
    INDEX 01 02:56:61
  TRACK 97 AUDIO
    TITLE "2:cjc156_0318"
    INDEX 01 02:59:03
  TRACK 98 AUDIO
    TITLE "3:cjc156_0319"
    INDEX 01 03:00:71
  TRACK 99 AUDIO
    TITLE "2:cjc156_0320"
    INDEX 01 03:02:70
  TRACK 100 AUDIO
    TITLE "3:cjc156_0321"
    INDEX 01 03:04:45
  TRACK 101 AUDIO
    TITLE "2:cjc156_0322"
    INDEX 01 03:06:24
  TRACK 102 AUDIO
    TITLE "3:cjc156_0323"
    INDEX 01 03:07:59
  TRACK 103 AUDIO
    TITLE "2:cjc156_0324"
    INDEX 01 03:09:29
  TRACK 104 AUDIO
    TITLE "3:cjc156_0325"
    INDEX 01 03:11:47
  TRACK 105 AUDIO
    TITLE "2:cjc156_0326"
    INDEX 01 03:14:04
  TRACK 106 AUDIO
    TITLE "3:cjc156_0327"
    INDEX 01 03:15:41
  TRACK 107 AUDIO
    TITLE "2:cjc156_0328"
    INDEX 01 03:17:14
  TRACK 108 AUDIO
    TITLE "3:cjc156_0329"
    INDEX 01 03:19:37
  TRACK 109 AUDIO
    TITLE "2:cjc156_0330"
    INDEX 01 03:21:71
  TRACK 110 AUDIO
    TITLE "3:cjc156_0331"
    INDEX 01 03:23:74
  TRACK 111 AUDIO
    TITLE "2:cjc156_0332"
    INDEX 01 03:26:11
  TRACK 112 AUDIO
    TITLE "3:cjc156_0333"
    INDEX 01 03:27:52
  TRACK 113 AUDIO
    TITLE "2:cjc156_0334"
    INDEX 01 03:29:29
  TRACK 114 AUDIO
    TITLE "3:cjc156_0335"
    INDEX 01 03:31:15
  TRACK 115 AUDIO
    TITLE "2:cjc156_0336"
    INDEX 01 03:33:08
  TRACK 116 AUDIO
    TITLE "3:cjc156_0337"
    INDEX 01 03:35:36
  TRACK 117 AUDIO
    TITLE "2:cjc156_0338"
    INDEX 01 03:37:74
  TRACK 118 AUDIO
    TITLE "3:cjc156_0339"
    INDEX 01 03:39:38
  TRACK 119 AUDIO
    TITLE "2:cjc156_0340"
    INDEX 01 03:41:09
  TRACK 120 AUDIO
    TITLE "3:cjc156_0341"
    INDEX 01 03:42:54
  TRACK 121 AUDIO
    TITLE "2:cjc156_0342"
    INDEX 01 03:44:35
  TRACK 122 AUDIO
    TITLE "3:cjc156_0343"
    INDEX 01 03:45:60
  TRACK 123 AUDIO
    TITLE "2:cjc156_0344"
    INDEX 01 03:47:23
  TRACK 124 AUDIO
    TITLE "3:cjc156_0345"
    INDEX 01 03:49:46
  TRACK 125 AUDIO
    TITLE "2:cjc156_0346"
    INDEX 01 03:52:03
  TRACK 126 AUDIO
    TITLE "3:cjc156_0347"
    INDEX 01 03:53:40
  TRACK 127 AUDIO
    TITLE "2:cjc156_0348"
    INDEX 01 03:55:07
  TRACK 128 AUDIO
    TITLE "3:cjc156_0349"
    INDEX 01 03:57:37
  TRACK 129 AUDIO
    TITLE "2:cjc156_0350"
    INDEX 01 04:00:02
  TRACK 130 AUDIO
    TITLE "3:cjc156_0351"
    INDEX 01 04:01:27
  TRACK 131 AUDIO
    TITLE "2:cjc156_0352"
    INDEX 01 04:02:70
  TRACK 132 AUDIO
    TITLE "3:cjc156_0353"
    INDEX 01 04:06:17
  TRACK 133 AUDIO
    TITLE "2:cjc156_0354"
    INDEX 01 04:09:48
  TRACK 134 AUDIO
    TITLE "3:cjc156_0355"
    INDEX 01 04:11:55
  TRACK 135 AUDIO
    TITLE "2:cjc156_0356"
    INDEX 01 04:14:01
  TRACK 136 AUDIO
    TITLE "3:cjc156_0357"
    INDEX 01 04:15:61
  TRACK 137 AUDIO
    TITLE "2:cjc156_0358"
    INDEX 01 04:17:50
  TRACK 138 AUDIO
    TITLE "3:cjc156_0359"
    INDEX 01 04:19:21
  TRACK 139 AUDIO
    TITLE "2:cjc156_0360"
    INDEX 01 04:20:74
  TRACK 140 AUDIO
    TITLE "3:cjc156_0361"
    INDEX 01 04:22:29
  TRACK 141 AUDIO
    TITLE "2:cjc156_0362"
    INDEX 01 04:23:74
  TRACK 142 AUDIO
    TITLE "3:cjc156_0363"
    INDEX 01 04:26:06
  TRACK 143 AUDIO
    TITLE "2:cjc156_0364"
    INDEX 01 04:28:20
  TRACK 144 AUDIO
    TITLE "3:cjc156_0365"
    INDEX 01 04:29:39
  TRACK 145 AUDIO
    TITLE "2:cjc156_0366"
    INDEX 01 04:30:62
  TRACK 146 AUDIO
    TITLE "3:cjc156_0367"
    INDEX 01 04:32:28
  TRACK 147 AUDIO
    TITLE "2:cjc156_0368"
    INDEX 01 04:34:03
  TRACK 148 AUDIO
    TITLE "3:cjc156_0369"
    INDEX 01 04:36:59
  TRACK 149 AUDIO
    TITLE "2:cjc156_0370"
    INDEX 01 04:39:50
  TRACK 150 AUDIO
    TITLE "3:cjc156_0371"
    INDEX 01 04:41:21
  TRACK 151 AUDIO
    TITLE "2:cjc156_0372"
    INDEX 01 04:43:04
  TRACK 152 AUDIO
    TITLE "3:cjc156_0373"
    INDEX 01 04:44:45
  TRACK 153 AUDIO
    TITLE "2:cjc156_0374"
    INDEX 01 04:46:22
  TRACK 154 AUDIO
    TITLE "3:cjc156_0375"
    INDEX 01 04:48:25
  TRACK 155 AUDIO
    TITLE "2:cjc156_0376"
    INDEX 01 04:50:38
  TRACK 156 AUDIO
    TITLE "3:cjc156_0377"
    INDEX 01 04:53:16
  TRACK 157 AUDIO
    TITLE "2:cjc156_0378"
    INDEX 01 04:56:05
  TRACK 158 AUDIO
    TITLE "3:cjc156_0379"
    INDEX 01 04:58:53
  TRACK 159 AUDIO
    TITLE "2:cjc156_0380"
    INDEX 01 05:01:33
  TRACK 160 AUDIO
    TITLE "3:cjc156_0381"
    INDEX 01 05:03:05
  TRACK 161 AUDIO
    TITLE "2:cjc156_0382"
    INDEX 01 05:04:57
  TRACK 162 AUDIO
    TITLE "3:cjc156_0383"
    INDEX 01 05:06:27
  TRACK 163 AUDIO
    TITLE "2:cjc156_0384"
    INDEX 01 05:07:73
  TRACK 164 AUDIO
    TITLE "3:cjc156_0385"
    INDEX 01 05:09:60
  TRACK 165 AUDIO
    TITLE "2:cjc156_0386"
    INDEX 01 05:11:53
  TRACK 166 AUDIO
    TITLE "3:cjc156_0387"
    INDEX 01 05:13:46
  TRACK 167 AUDIO
    TITLE "2:cjc156_0388"
    INDEX 01 05:15:47
  TRACK 168 AUDIO
    TITLE "3:cjc156_0389"
    INDEX 01 05:17:70
  TRACK 169 AUDIO
    TITLE "2:cjc156_0390"
    INDEX 01 05:20:23
  TRACK 170 AUDIO
    TITLE "3:cjc156_0391"
    INDEX 01 05:22:00
  TRACK 171 AUDIO
    TITLE "2:cjc156_0392"
    INDEX 01 05:23:62
  TRACK 172 AUDIO
    TITLE "3:cjc156_0393"
    INDEX 01 05:25:30
  TRACK 173 AUDIO
    TITLE "2:cjc156_0394"
    INDEX 01 05:27:03
  TRACK 174 AUDIO
    TITLE "3:cjc156_0395"
    INDEX 01 05:28:70
  TRACK 175 AUDIO
    TITLE "2:cjc156_0396"
    INDEX 01 05:30:65
  TRACK 176 AUDIO
    TITLE "3:cjc156_0397"
    INDEX 01 05:32:61
  TRACK 177 AUDIO
    TITLE "2:cjc156_0398"
    INDEX 01 05:34:64
  TRACK 178 AUDIO
    TITLE "3:cjc156_0399"
    INDEX 01 05:36:28
  TRACK 179 AUDIO
    TITLE "2:cjc156_0400"
    INDEX 01 05:37:74
  TRACK 180 AUDIO
    TITLE "3:cjc156_0401"
    INDEX 01 05:39:18
  TRACK 181 AUDIO
    TITLE "2:cjc156_0402"
    INDEX 01 05:40:49
  TRACK 182 AUDIO
    TITLE "3:cjc156_0403"
    INDEX 01 05:41:68
  TRACK 183 AUDIO
    TITLE "2:cjc156_0404"
    INDEX 01 05:43:24
  TRACK 184 AUDIO
    TITLE "3:cjc156_0405"
    INDEX 01 05:45:19
  TRACK 185 AUDIO
    TITLE "2:cjc156_0406"
    INDEX 01 05:47:24
  TRACK 186 AUDIO
    TITLE "3:cjc156_0407"
    INDEX 01 05:48:33
  TRACK 187 AUDIO
    TITLE "2:cjc156_0408"
    INDEX 01 05:49:50
  TRACK 188 AUDIO
    TITLE "3:cjc156_0409"
    INDEX 01 05:51:22
  TRACK 189 AUDIO
    TITLE "2:cjc156_0410"
    INDEX 01 05:52:74
  TRACK 190 AUDIO
    TITLE "3:cjc156_0411"
    INDEX 01 05:54:10
  TRACK 191 AUDIO
    TITLE "2:cjc156_0412"
    INDEX 01 05:55:31
  TRACK 192 AUDIO
    TITLE "3:cjc156_0413"
    INDEX 01 05:57:10
  TRACK 193 AUDIO
    TITLE "2:cjc156_0414"
    INDEX 01 05:59:02
  TRACK 194 AUDIO
    TITLE "3:cjc156_0415"
    INDEX 01 06:00:21
  TRACK 195 AUDIO
    TITLE "2:cjc156_0416"
    INDEX 01 06:01:44
  TRACK 196 AUDIO
    TITLE "3:cjc156_0417"
    INDEX 01 06:03:27
  TRACK 197 AUDIO
    TITLE "2:cjc156_0418"
    INDEX 01 06:05:24
  TRACK 198 AUDIO
    TITLE "3:cjc156_0419"
    INDEX 01 06:06:72
  TRACK 199 AUDIO
    TITLE "2:cjc156_0420"
    INDEX 01 06:08:55
  TRACK 200 AUDIO
    TITLE "3:cjc156_0421"
    INDEX 01 06:10:05
  TRACK 201 AUDIO
    TITLE "2:cjc156_0422"
    INDEX 01 06:11:30
  TRACK 202 AUDIO
    TITLE "3:cjc156_0423"
    INDEX 01 06:14:29
  TRACK 203 AUDIO
    TITLE "2:cjc156_0424"
    INDEX 01 06:17:41
  TRACK 204 AUDIO
    TITLE "3:cjc156_0425"
    INDEX 01 06:19:65
  TRACK 205 AUDIO
    TITLE "2:cjc156_0426"
    INDEX 01 06:22:26
  TRACK 206 AUDIO
    TITLE "3:cjc156_0427"
    INDEX 01 06:25:26
  TRACK 207 AUDIO
    TITLE "2:cjc156_0428"
    INDEX 01 06:28:36
  TRACK 208 AUDIO
    TITLE "3:cjc156_0429"
    INDEX 01 06:29:65
  TRACK 209 AUDIO
    TITLE "2:cjc156_0430"
    INDEX 01 06:31:19
  TRACK 210 AUDIO
    TITLE "3:cjc156_0431"
    INDEX 01 06:32:44
  TRACK 211 AUDIO
    TITLE "2:cjc156_0432"
    INDEX 01 06:34:04
  TRACK 212 AUDIO
    TITLE "3:cjc156_0433"
    INDEX 01 06:36:16
  TRACK 213 AUDIO
    TITLE "2:cjc156_0434"
    INDEX 01 06:38:39
  TRACK 214 AUDIO
    TITLE "3:cjc156_0435"
    INDEX 01 06:40:20
  TRACK 215 AUDIO
    TITLE "2:cjc156_0436"
    INDEX 01 06:42:13
  TRACK 216 AUDIO
    TITLE "3:cjc156_0437"
    INDEX 01 06:43:26
  TRACK 217 AUDIO
    TITLE "2:cjc156_0438"
    INDEX 01 06:44:45
  TRACK 218 AUDIO
    TITLE "3:cjc156_0439"
    INDEX 01 06:45:68
  TRACK 219 AUDIO
    TITLE "2:cjc156_0440"
    INDEX 01 06:47:26
  TRACK 220 AUDIO
    TITLE "3:cjc156_0441"
    INDEX 01 06:49:05
  TRACK 221 AUDIO
    TITLE "2:cjc156_0442"
    INDEX 01 06:50:71
  TRACK 222 AUDIO
    TITLE "3:cjc156_0443"
    INDEX 01 06:52:27
  TRACK 223 AUDIO
    TITLE "2:cjc156_0444"
    INDEX 01 06:53:70
  TRACK 224 AUDIO
    TITLE "3:cjc156_0445"
    INDEX 01 06:55:33
  TRACK 225 AUDIO
    TITLE "2:cjc156_0446"
    INDEX 01 06:57:15
  TRACK 226 AUDIO
    TITLE "3:cjc156_0447"
    INDEX 01 06:58:42
  TRACK 227 AUDIO
    TITLE "2:cjc156_0448"
    INDEX 01 07:00:09
  TRACK 228 AUDIO
    TITLE "3:cjc156_0449"
    INDEX 01 07:01:40
  TRACK 229 AUDIO
    TITLE "2:cjc156_0450"
    INDEX 01 07:03:05
  TRACK 230 AUDIO
    TITLE "3:cjc156_0451"
    INDEX 01 07:04:19
  TRACK 231 AUDIO
    TITLE "2:cjc156_0452"
    INDEX 01 07:05:38
  TRACK 232 AUDIO
    TITLE "3:cjc156_0453"
    INDEX 01 07:07:23
  TRACK 233 AUDIO
    TITLE "2:cjc156_0454"
    INDEX 01 07:09:18
  TRACK 234 AUDIO
    TITLE "3:cjc156_0455"
    INDEX 01 07:10:23
  TRACK 235 AUDIO
    TITLE "2:cjc156_0456"
    INDEX 01 07:11:40
  TRACK 236 AUDIO
    TITLE "3:cjc156_0457"
    INDEX 01 07:13:55
  TRACK 237 AUDIO
    TITLE "0:"
    INDEX 01 07:16:08
